<svg xmlns="http://www.w3.org/2000/svg" viewBox="0 0 56 32" fill="none">
  <path d="M12 25a6 6 0 1 0 0-12 6 6 0 0 0 0 12Z" stroke="currentColor" stroke-width="3" stroke-linecap="round"/>
  <path d="M42 25a6 6 0 1 0 0-12 6 6 0 0 0 0 12Z" stroke="currentColor" stroke-width="3" stroke-linecap="round"/>
  <path d="M12 19h10l7-9 7 9h-14l-4-9" stroke="currentColor" stroke-width="3" stroke-linecap="round" stroke-linejoin="round"/>
  <path d="M29 10l-2-5h6" stroke="currentColor" stroke-width="3" stroke-linecap="round" stroke-linejoin="round"/>
  <path d="M36 19l5-8h6" stroke="currentColor" stroke-width="3" stroke-linecap="round" stroke-linejoin="round"/>
  <path d="M30 5c4 1 7 3 9 6" stroke="currentColor" stroke-width="3" stroke-linecap="round"/>
  <path d="M9 14H2M8 18H1M8 22H3" stroke="currentColor" stroke-width="2" stroke-linecap="round" opacity=".65"/>
</svg>
